<mxfile host="app.diagrams.net" agent="Mozilla/5.0 (Windows NT 10.0; Win64; x64; rv:133.0) Gecko/20100101 Firefox/133.0" version="25.0.3">
  <diagram name="Seite-1" id="FO7F2LYot5oVuI9nNaOF">
    <mxGraphModel dx="3413" dy="1394" grid="1" gridSize="10" guides="1" tooltips="1" connect="1" arrows="1" fold="1" page="1" pageScale="1" pageWidth="827" pageHeight="1169" math="0" shadow="0">
      <root>
        <mxCell id="0" />
        <mxCell id="1" parent="0" />
        <object label="Client" btelligentShapeType="Hub" id="CRDZAX5_v3VsPTcbH_Vh-15">
          <mxCell style="rounded=0;whiteSpace=wrap;html=1;fillColor=#dae8fc;strokeColor=#6c8ebf;" parent="1" vertex="1">
            <mxGeometry x="400" y="200" width="120" height="60" as="geometry" />
          </mxCell>
        </object>
        <object label="default" btelligentShapeType="Satellite" id="CRDZAX5_v3VsPTcbH_Vh-16">
          <mxCell style="rounded=1;whiteSpace=wrap;html=1;arcSize=50;fillColor=#fff2cc;strokeColor=#d6b656;" parent="1" vertex="1">
            <mxGeometry x="560" y="200" width="120" height="60" as="geometry" />
          </mxCell>
        </object>
        <object label="" btelligentShapeType="Hub-to-Sat" id="CRDZAX5_v3VsPTcbH_Vh-17">
          <mxCell style="endArrow=none;html=1;rounded=1;edgeStyle=orthogonalEdgeStyle;curved=0;" parent="1" source="CRDZAX5_v3VsPTcbH_Vh-16" target="CRDZAX5_v3VsPTcbH_Vh-15" edge="1">
            <mxGeometry width="50" height="50" relative="1" as="geometry">
              <mxPoint x="290" y="140" as="sourcePoint" />
              <mxPoint x="190" y="140" as="targetPoint" />
            </mxGeometry>
          </mxCell>
        </object>
        <object label="Fiege Location" btelligentShapeType="Hub" id="CRDZAX5_v3VsPTcbH_Vh-18">
          <mxCell style="rounded=0;whiteSpace=wrap;html=1;fillColor=#dae8fc;strokeColor=#6c8ebf;" parent="1" vertex="1">
            <mxGeometry x="-80" y="200" width="120" height="60" as="geometry" />
          </mxCell>
        </object>
        <object label="default" btelligentShapeType="Satellite" id="CRDZAX5_v3VsPTcbH_Vh-19">
          <mxCell style="rounded=1;whiteSpace=wrap;html=1;arcSize=50;fillColor=#fff2cc;strokeColor=#d6b656;" parent="1" vertex="1">
            <mxGeometry x="-80" y="100" width="120" height="60" as="geometry" />
          </mxCell>
        </object>
        <object label="" btelligentShapeType="Hub-to-Sat" id="CRDZAX5_v3VsPTcbH_Vh-20">
          <mxCell style="endArrow=none;html=1;rounded=1;edgeStyle=orthogonalEdgeStyle;curved=0;" parent="1" source="CRDZAX5_v3VsPTcbH_Vh-19" target="CRDZAX5_v3VsPTcbH_Vh-18" edge="1">
            <mxGeometry width="50" height="50" relative="1" as="geometry">
              <mxPoint x="-190" y="140" as="sourcePoint" />
              <mxPoint x="-290" y="140" as="targetPoint" />
            </mxGeometry>
          </mxCell>
        </object>
        <object label="Advice" btelligentShapeType="Hub" id="CRDZAX5_v3VsPTcbH_Vh-21">
          <mxCell style="rounded=0;whiteSpace=wrap;html=1;fillColor=#dae8fc;strokeColor=#6c8ebf;" parent="1" vertex="1">
            <mxGeometry x="160" y="360" width="120" height="60" as="geometry" />
          </mxCell>
        </object>
        <object label="default" btelligentShapeType="Satellite" id="CRDZAX5_v3VsPTcbH_Vh-22">
          <mxCell style="rounded=1;whiteSpace=wrap;html=1;arcSize=50;fillColor=#fff2cc;strokeColor=#d6b656;" parent="1" vertex="1">
            <mxGeometry x="320" y="360" width="120" height="60" as="geometry" />
          </mxCell>
        </object>
        <object label="" btelligentShapeType="Hub-to-Sat" id="CRDZAX5_v3VsPTcbH_Vh-23">
          <mxCell style="endArrow=none;html=1;rounded=1;edgeStyle=orthogonalEdgeStyle;curved=0;" parent="1" source="CRDZAX5_v3VsPTcbH_Vh-22" target="CRDZAX5_v3VsPTcbH_Vh-21" edge="1">
            <mxGeometry width="50" height="50" relative="1" as="geometry">
              <mxPoint x="50" y="300" as="sourcePoint" />
              <mxPoint x="-50" y="300" as="targetPoint" />
            </mxGeometry>
          </mxCell>
        </object>
        <object label="Link" btelligentShapeType="Link" id="CRDZAX5_v3VsPTcbH_Vh-24">
          <mxCell style="shape=associativeEntity;whiteSpace=wrap;html=1;align=center;fillColor=#f8cecc;strokeColor=#b85450;" parent="1" vertex="1">
            <mxGeometry x="160" y="200" width="120" height="60" as="geometry" />
          </mxCell>
        </object>
        <object label="" btelligentShapeType="Hub-to-Link-1" id="CRDZAX5_v3VsPTcbH_Vh-25">
          <mxCell style="endArrow=ERone;html=1;rounded=1;endSize=15;endFill=0;edgeStyle=orthogonalEdgeStyle;" parent="1" source="CRDZAX5_v3VsPTcbH_Vh-21" target="CRDZAX5_v3VsPTcbH_Vh-24" edge="1">
            <mxGeometry width="50" height="50" relative="1" as="geometry">
              <mxPoint x="230" y="380" as="sourcePoint" />
              <mxPoint x="230" y="330" as="targetPoint" />
            </mxGeometry>
          </mxCell>
        </object>
        <object label="" btelligentShapeType="Hub-to-Link-N" id="CRDZAX5_v3VsPTcbH_Vh-26">
          <mxCell style="endArrow=ERmany;html=1;rounded=1;endSize=15;endFill=0;edgeStyle=orthogonalEdgeStyle;curved=0;" parent="1" source="CRDZAX5_v3VsPTcbH_Vh-18" target="CRDZAX5_v3VsPTcbH_Vh-24" edge="1">
            <mxGeometry width="50" height="50" relative="1" as="geometry">
              <mxPoint y="70" as="sourcePoint" />
              <mxPoint y="130" as="targetPoint" />
            </mxGeometry>
          </mxCell>
        </object>
        <object label="" btelligentShapeType="Hub-to-Link-N" id="CRDZAX5_v3VsPTcbH_Vh-27">
          <mxCell style="endArrow=ERmany;html=1;rounded=1;endSize=15;endFill=0;edgeStyle=orthogonalEdgeStyle;curved=0;" parent="1" source="CRDZAX5_v3VsPTcbH_Vh-15" target="CRDZAX5_v3VsPTcbH_Vh-24" edge="1">
            <mxGeometry width="50" height="50" relative="1" as="geometry">
              <mxPoint x="380" y="60" as="sourcePoint" />
              <mxPoint x="380" y="120" as="targetPoint" />
            </mxGeometry>
          </mxCell>
        </object>
        <object label="Advice Line" btelligentShapeType="Hub" id="CRDZAX5_v3VsPTcbH_Vh-28">
          <mxCell style="rounded=0;whiteSpace=wrap;html=1;fillColor=#dae8fc;strokeColor=#6c8ebf;" parent="1" vertex="1">
            <mxGeometry x="160" y="680" width="120" height="60" as="geometry" />
          </mxCell>
        </object>
        <object label="default" btelligentShapeType="Satellite" id="CRDZAX5_v3VsPTcbH_Vh-29">
          <mxCell style="rounded=1;whiteSpace=wrap;html=1;arcSize=50;fillColor=#fff2cc;strokeColor=#d6b656;" parent="1" vertex="1">
            <mxGeometry x="160" y="780" width="120" height="60" as="geometry" />
          </mxCell>
        </object>
        <object label="" btelligentShapeType="Hub-to-Sat" id="CRDZAX5_v3VsPTcbH_Vh-30">
          <mxCell style="endArrow=none;html=1;rounded=1;edgeStyle=orthogonalEdgeStyle;curved=0;" parent="1" source="CRDZAX5_v3VsPTcbH_Vh-29" target="CRDZAX5_v3VsPTcbH_Vh-28" edge="1">
            <mxGeometry width="50" height="50" relative="1" as="geometry">
              <mxPoint x="50" y="620" as="sourcePoint" />
              <mxPoint x="-50" y="620" as="targetPoint" />
            </mxGeometry>
          </mxCell>
        </object>
        <object label="Link" btelligentShapeType="Link" id="CRDZAX5_v3VsPTcbH_Vh-32">
          <mxCell style="shape=associativeEntity;whiteSpace=wrap;html=1;align=center;fillColor=#f8cecc;strokeColor=#b85450;" parent="1" vertex="1">
            <mxGeometry x="160" y="520" width="120" height="60" as="geometry" />
          </mxCell>
        </object>
        <object label="" btelligentShapeType="Hub-to-Link-1" id="CRDZAX5_v3VsPTcbH_Vh-33">
          <mxCell style="endArrow=ERone;html=1;rounded=1;endSize=15;endFill=0;edgeStyle=orthogonalEdgeStyle;" parent="1" source="CRDZAX5_v3VsPTcbH_Vh-28" target="CRDZAX5_v3VsPTcbH_Vh-32" edge="1">
            <mxGeometry width="50" height="50" relative="1" as="geometry">
              <mxPoint x="150" y="660" as="sourcePoint" />
              <mxPoint x="150" y="610" as="targetPoint" />
            </mxGeometry>
          </mxCell>
        </object>
        <object label="" btelligentShapeType="Hub-to-Link-N" id="CRDZAX5_v3VsPTcbH_Vh-34">
          <mxCell style="endArrow=ERmany;html=1;rounded=1;endSize=15;endFill=0;edgeStyle=orthogonalEdgeStyle;curved=0;" parent="1" source="CRDZAX5_v3VsPTcbH_Vh-21" target="CRDZAX5_v3VsPTcbH_Vh-32" edge="1">
            <mxGeometry width="50" height="50" relative="1" as="geometry">
              <mxPoint x="60" y="430" as="sourcePoint" />
              <mxPoint x="60" y="490" as="targetPoint" />
            </mxGeometry>
          </mxCell>
        </object>
        <object label="Article" btelligentShapeType="Hub" id="CRDZAX5_v3VsPTcbH_Vh-35">
          <mxCell style="rounded=0;whiteSpace=wrap;html=1;fillColor=#dae8fc;strokeColor=#6c8ebf;" parent="1" vertex="1">
            <mxGeometry x="640" y="680" width="120" height="60" as="geometry" />
          </mxCell>
        </object>
        <object label="default" btelligentShapeType="Satellite" id="CRDZAX5_v3VsPTcbH_Vh-36">
          <mxCell style="rounded=1;whiteSpace=wrap;html=1;arcSize=50;fillColor=#fff2cc;strokeColor=#d6b656;" parent="1" vertex="1">
            <mxGeometry x="640" y="580" width="120" height="60" as="geometry" />
          </mxCell>
        </object>
        <object label="" btelligentShapeType="Hub-to-Sat" id="CRDZAX5_v3VsPTcbH_Vh-37">
          <mxCell style="endArrow=none;html=1;rounded=1;edgeStyle=orthogonalEdgeStyle;curved=0;" parent="1" source="CRDZAX5_v3VsPTcbH_Vh-36" target="CRDZAX5_v3VsPTcbH_Vh-35" edge="1">
            <mxGeometry width="50" height="50" relative="1" as="geometry">
              <mxPoint x="530" y="620" as="sourcePoint" />
              <mxPoint x="430" y="620" as="targetPoint" />
            </mxGeometry>
          </mxCell>
        </object>
        <object label="Link" btelligentShapeType="Link" id="CRDZAX5_v3VsPTcbH_Vh-38">
          <mxCell style="shape=associativeEntity;whiteSpace=wrap;html=1;align=center;fillColor=#f8cecc;strokeColor=#b85450;" parent="1" vertex="1">
            <mxGeometry x="400" y="680" width="120" height="60" as="geometry" />
          </mxCell>
        </object>
        <object label="" btelligentShapeType="Hub-to-Link-1" id="CRDZAX5_v3VsPTcbH_Vh-39">
          <mxCell style="endArrow=ERone;html=1;rounded=1;endSize=15;endFill=0;edgeStyle=orthogonalEdgeStyle;" parent="1" source="CRDZAX5_v3VsPTcbH_Vh-28" target="CRDZAX5_v3VsPTcbH_Vh-38" edge="1">
            <mxGeometry width="50" height="50" relative="1" as="geometry">
              <mxPoint x="310" y="930" as="sourcePoint" />
              <mxPoint x="310" y="880" as="targetPoint" />
            </mxGeometry>
          </mxCell>
        </object>
        <object label="" btelligentShapeType="Hub-to-Link-N" id="CRDZAX5_v3VsPTcbH_Vh-40">
          <mxCell style="endArrow=ERmany;html=1;rounded=1;endSize=15;endFill=0;edgeStyle=orthogonalEdgeStyle;curved=0;" parent="1" source="CRDZAX5_v3VsPTcbH_Vh-35" target="CRDZAX5_v3VsPTcbH_Vh-38" edge="1">
            <mxGeometry width="50" height="50" relative="1" as="geometry">
              <mxPoint x="490" y="450" as="sourcePoint" />
              <mxPoint x="490" y="510" as="targetPoint" />
            </mxGeometry>
          </mxCell>
        </object>
        <object label="Process Status" btelligentShapeType="Satellite" id="mK-Mi_4KFUAdVltzjD9l-1">
          <mxCell style="rounded=1;whiteSpace=wrap;html=1;arcSize=50;fillColor=#fff2cc;strokeColor=#d6b656;" vertex="1" parent="1">
            <mxGeometry y="360" width="120" height="60" as="geometry" />
          </mxCell>
        </object>
        <object label="Process Status" btelligentShapeType="Satellite" id="mK-Mi_4KFUAdVltzjD9l-2">
          <mxCell style="rounded=1;whiteSpace=wrap;html=1;arcSize=50;fillColor=#fff2cc;strokeColor=#d6b656;" vertex="1" parent="1">
            <mxGeometry y="680" width="120" height="60" as="geometry" />
          </mxCell>
        </object>
        <object label="" btelligentShapeType="Hub-to-Sat" id="mK-Mi_4KFUAdVltzjD9l-3">
          <mxCell style="endArrow=none;html=1;rounded=1;edgeStyle=orthogonalEdgeStyle;curved=0;" edge="1" parent="1" source="CRDZAX5_v3VsPTcbH_Vh-28" target="mK-Mi_4KFUAdVltzjD9l-2">
            <mxGeometry width="50" height="50" relative="1" as="geometry">
              <mxPoint x="190" y="640" as="sourcePoint" />
              <mxPoint x="90" y="640" as="targetPoint" />
            </mxGeometry>
          </mxCell>
        </object>
        <object label="" btelligentShapeType="Hub-to-Sat" id="mK-Mi_4KFUAdVltzjD9l-5">
          <mxCell style="endArrow=none;html=1;rounded=1;edgeStyle=orthogonalEdgeStyle;curved=0;" edge="1" parent="1" source="CRDZAX5_v3VsPTcbH_Vh-21" target="mK-Mi_4KFUAdVltzjD9l-1">
            <mxGeometry width="50" height="50" relative="1" as="geometry">
              <mxPoint x="-240" y="540" as="sourcePoint" />
              <mxPoint x="-340" y="540" as="targetPoint" />
            </mxGeometry>
          </mxCell>
        </object>
        <object label="Reference" btelligentShapeType="Reference" id="mK-Mi_4KFUAdVltzjD9l-6">
          <mxCell style="shape=card;whiteSpace=wrap;html=1;size=20;fillColor=#eeeeee;strokeColor=#999999;" vertex="1" parent="1">
            <mxGeometry x="-160" y="520" width="120" height="60" as="geometry" />
          </mxCell>
        </object>
        <object label="" btelligentShapeType="Hub-to-Sat" id="mK-Mi_4KFUAdVltzjD9l-7">
          <mxCell style="endArrow=none;html=1;rounded=1;edgeStyle=orthogonalEdgeStyle;curved=0;" edge="1" parent="1" source="mK-Mi_4KFUAdVltzjD9l-1" target="mK-Mi_4KFUAdVltzjD9l-6">
            <mxGeometry width="50" height="50" relative="1" as="geometry">
              <mxPoint x="-40" y="390" as="sourcePoint" />
              <mxPoint x="-140" y="390" as="targetPoint" />
            </mxGeometry>
          </mxCell>
        </object>
        <object label="" btelligentShapeType="Hub-to-Sat" id="mK-Mi_4KFUAdVltzjD9l-8">
          <mxCell style="endArrow=none;html=1;rounded=1;edgeStyle=orthogonalEdgeStyle;curved=0;" edge="1" parent="1" source="mK-Mi_4KFUAdVltzjD9l-6" target="mK-Mi_4KFUAdVltzjD9l-2">
            <mxGeometry width="50" height="50" relative="1" as="geometry">
              <mxPoint x="10" y="400" as="sourcePoint" />
              <mxPoint x="-90" y="530" as="targetPoint" />
              <Array as="points">
                <mxPoint x="-100" y="710" />
              </Array>
            </mxGeometry>
          </mxCell>
        </object>
      </root>
    </mxGraphModel>
  </diagram>
</mxfile>
